<?xml version="1.0" encoding="utf-8"?>
<svg viewBox="0 0 500 500" xmlns="http://www.w3.org/2000/svg">
  <defs>
    <radialGradient gradientUnits="userSpaceOnUse" cx="175.262" cy="254.752" r="142.244" id="gradient-0" spreadMethod="pad" gradientTransform="matrix(-0.37536, 0.848675, -2.075294, -0.917886, 769.73382, 339.845058)">
      <stop offset="0" style="stop-color: rgb(208, 128, 218);"/>
      <stop offset="1" style="stop-color: rgb(50, 91, 141);"/>
    </radialGradient>
    <radialGradient gradientUnits="userSpaceOnUse" cx="175.262" cy="254.752" r="142.244" id="gradient-1">
      <stop offset="0" style="stop-color: rgba(92, 92, 92, 0)"/>
      <stop offset="1" style="stop-color: rgba(41, 41, 41, 0)"/>
    </radialGradient>
  </defs>
  <path style="stroke-miterlimit: 3.89; paint-order: fill; stroke-width: 11px; stroke: url('#gradient-0'); stroke-linecap: round; stroke-linejoin: round; fill: url('#gradient-1');" d="M 59.17 6.414 C 63.548 6.436 68.57 11.236 73.533 11.261 C 69.295 12.191 41.546 14.754 38.424 18.241 C 29.587 28.106 31.737 51.876 43.743 65.404 C 50.072 72.535 61.388 73.252 70.872 73.3 C 73.81 73.316 83.731 72.275 85.767 74.57 C 93.081 82.81 110.74 87.924 120.344 94.438 C 128.67 100.084 133.342 107.721 138.962 117.206 C 145 127.396 139.203 132.71 151.197 138.152 C 161.813 142.969 174.531 149.225 185.774 150.859 C 215.253 155.144 244.968 150.768 273.545 163.244 C 283.985 167.801 294.786 171.824 304.93 177.128 C 306.756 178.083 315.109 180.324 316.102 182.556 C 317.164 184.945 316.041 190.042 316.634 192.701 C 322.737 220.115 295.438 244.804 277.269 256.938 C 272.752 259.954 268.271 264.664 263.439 267.01 C 259.067 269.132 254.988 270.513 250.672 272.912 C 242.77 277.302 232.631 276.995 224.074 276.95 C 214.667 276.902 188.478 276.271 183.114 264.212 C 180.777 258.957 175.815 248.76 177.795 242.107 C 181.29 230.365 211.907 233.756 220.35 236.956 C 227.685 239.736 233.789 249.712 238.968 255.548 C 244.118 261.35 253.163 275.092 249.076 284.239 C 245.051 293.246 232.382 300.619 223.011 303.199 C 210.704 306.587 198.891 314.137 186.305 317.329 C 165.256 322.67 136.668 329.343 131.514 358.218 C 128.783 373.527 144.667 386.354 153.857 394.132 C 164.275 402.951 174.769 413.325 186.305 421.148 C 198.048 429.112 213.483 432.04 226.734 435.079 C 237.686 437.593 249.846 443.141 261.311 440.628 C 272.479 438.18 288.177 436.41 299.612 439.034 C 304.84 440.234 311.354 440.379 313.973 446.268 C 314.737 447.983 313.958 449.795 314.506 451.64 C 320.169 470.725 297.234 463.379 287.376 467.014 C 273.902 471.983 261.395 482.111 247.48 486.499 C 240.48 488.706 226.681 489.434 221.415 495.315 C 218.687 498.36 225.138 502.983 225.138 503.09"/>
</svg>